<svg width="103" height="215" viewBox="0 0 103 215" fill="none" xmlns="http://www.w3.org/2000/svg">
<path d="M66.7233 202.504L84.2681 213.77C86.0458 214.915 88.3718 213.637 88.3718 211.547L88.3718 116.645L88.3718 56.4349C88.3718 47.0608 83.4207 38.3836 75.3461 33.6053L22.0804 2.06533C12.3277 -3.70843 -0.000139129 3.30967 -0.000139624 14.6249L-0.000140923 44.3399L-0.000141737 62.9553L-0.000144815 133.385C-0.000144944 136.322 1.49515 139.059 3.9707 140.636L21.5155 151.901C23.2766 153.029 25.6193 151.768 25.6193 149.661L25.6193 125.919C25.6193 124.077 27.6628 122.966 29.208 123.961C30.5703 124.841 31.4011 126.35 31.4011 127.976L31.4011 165.207C31.4011 168.144 32.8964 170.881 35.3719 172.458L52.9167 183.723C54.6778 184.851 57.0205 183.59 57.0205 181.483L57.0205 147.571C57.0205 145.729 59.064 144.617 60.6092 145.613C61.9715 146.492 62.8023 148.002 62.8023 149.628L62.8023 195.254C62.769 198.191 64.2643 200.912 66.7233 202.504Z" fill="#D8D8FA"/>
<path d="M73.8634 202.504L91.4082 213.77C93.1859 214.915 95.512 213.637 95.512 211.547L95.512 116.645L95.512 56.4349C95.512 47.0608 90.5609 38.3836 82.4863 33.6053L29.2205 2.06533C19.4679 -3.70843 7.14 3.30967 7.14 14.6249L7.14 44.3399L7.13999 62.9553L7.13999 133.385C7.13999 136.322 8.63529 139.059 11.1108 140.636L28.6556 151.901C30.4168 153.029 32.7594 151.768 32.7594 149.661L32.7594 125.919C32.7594 124.077 34.803 122.966 36.3481 123.961C37.7105 124.841 38.5412 126.35 38.5412 127.976L38.5412 165.207C38.5412 168.144 40.0365 170.881 42.512 172.458L60.0568 183.723C61.818 184.851 64.1606 183.59 64.1606 181.483L64.1606 147.571C64.1606 145.729 66.2042 144.617 67.7493 145.613C69.1117 146.492 69.9424 148.002 69.9424 149.628L69.9424 195.254C69.9092 198.191 71.4045 200.912 73.8634 202.504Z" fill="#372666"/>
<path d="M81.0033 202.504L98.5481 213.77C100.326 214.914 102.652 213.637 102.652 211.546L102.652 116.644L102.652 56.4347C102.652 47.0607 97.7008 38.3834 89.6262 33.6052L36.3604 2.06516C26.6078 -3.7086 14.2799 3.30951 14.2799 14.6247L14.2799 44.3397L14.2799 62.9551L14.2799 133.385C14.2799 136.322 15.7752 139.059 18.2507 140.635L35.7955 151.901C37.5567 153.029 39.8993 151.768 39.8993 149.661L39.8993 125.919C39.8993 124.077 41.9429 122.966 43.488 123.961C44.8504 124.84 45.6811 126.35 45.6811 127.976L45.6811 165.207C45.6811 168.144 47.1764 170.881 49.6519 172.457L67.1967 183.723C68.9579 184.851 71.3005 183.59 71.3005 181.483L71.3005 147.571C71.3005 145.729 73.3441 144.617 74.8892 145.613C76.2516 146.492 77.0823 148.002 77.0823 149.628L77.0823 195.254C77.0491 198.19 78.5444 200.911 81.0033 202.504Z" fill="white"/>
<path fill-rule="evenodd" clip-rule="evenodd" d="M49.7096 39.3658C47.8899 38.3965 46.1442 38.4684 44.8562 39.5658C43.5681 40.6631 42.8431 42.6961 42.8406 45.2179V54.7356C42.8406 57.2599 43.5638 60.0653 44.851 62.5347C46.1383 65.0041 47.8843 66.9351 49.7048 67.9031C51.5253 68.8711 53.2712 68.7967 54.5585 67.6962C55.8458 66.5957 56.5689 64.5594 56.5689 62.0351V52.5174C56.5689 47.2699 53.4989 41.3672 49.7048 39.3499L49.7096 39.3658ZM80.106 55.5279C78.2864 54.5604 76.5412 54.6343 75.254 55.7334C73.9669 56.8324 73.2431 58.8668 73.2419 61.3892V70.907C73.2419 73.4312 73.965 76.2366 75.2523 78.706C76.5396 81.1754 78.2855 83.1065 80.106 84.0745C81.9265 85.0424 83.6725 84.968 84.9597 83.8675C86.247 82.7671 86.9702 80.7307 86.9702 78.2065V68.682C86.9702 63.4345 83.9002 57.5319 80.106 55.5145V55.5279Z" fill="#372666"/>
</svg>
